<?xml version="1.0" standalone="no"?>
<!DOCTYPE svg PUBLIC "-//W3C//DTD SVG 20010904//EN"
 "http://www.w3.org/TR/2001/REC-SVG-20010904/DTD/svg10.dtd">
<svg version="1.0" xmlns="http://www.w3.org/2000/svg"
 width="467.000000pt" height="234.000000pt" viewBox="0 0 467.000000 234.000000"
 preserveAspectRatio="xMidYMid meet">
<metadata>
Created by potrace 1.16, written by Peter Selinger 2001-2019
</metadata>
<g transform="translate(0.000000,234.000000) scale(0.100000,-0.100000)"
fill="#000000" stroke="none">
<path d="M2176 2306 c-19 -99 -114 -221 -193 -247 -59 -19 -170 -7 -237 26
-57 29 -166 125 -220 195 l-27 35 19 -40 c26 -53 52 -142 52 -178 0 -16 -7
-44 -16 -62 -14 -31 -19 -33 -82 -39 -37 -3 -97 -11 -134 -18 -61 -10 -73 -9
-135 12 -100 34 -196 79 -298 142 l-91 55 82 -81 c80 -80 126 -146 139 -197 6
-25 2 -30 -56 -60 -34 -19 -94 -62 -132 -98 l-70 -64 -111 6 c-104 6 -282 34
-364 57 -59 16 -47 4 20 -20 154 -55 297 -150 334 -222 54 -105 -56 -210 -281
-267 -97 -25 -263 -51 -327 -51 -69 0 -59 -17 15 -25 255 -26 419 -69 520
-136 176 -116 74 -277 -255 -404 -35 -13 -61 -24 -58 -25 3 0 59 12 125 26 86
18 164 27 274 31 148 6 154 5 148 -13 -3 -11 -18 -51 -33 -91 -14 -40 -24 -78
-21 -86 2 -7 51 -32 108 -56 57 -24 108 -47 112 -51 9 -8 -41 -69 -118 -143
l-50 -49 55 34 c139 86 185 107 231 106 27 0 70 10 106 24 l62 25 37 -22 37
-22 58 23 c32 13 63 24 68 24 22 0 92 -56 98 -77 8 -34 -4 -95 -32 -164 l-24
-59 75 79 c90 96 149 135 236 158 81 21 152 10 217 -32 49 -33 104 -112 127
-183 22 -71 46 -71 68 1 48 148 177 248 265 203 21 -11 52 -16 90 -15 77 3
124 -24 225 -131 75 -81 76 -81 57 -37 -23 54 -45 156 -36 165 4 4 10 1 12 -6
10 -27 48 -52 79 -52 51 0 73 13 159 89 43 39 85 71 92 71 31 0 199 -76 298
-136 l109 -64 -82 81 c-198 197 -188 338 28 394 53 14 92 16 210 11 125 -5
189 -13 365 -50 17 -4 2 5 -33 18 -242 97 -364 208 -338 311 9 34 67 90 124
119 130 65 376 113 594 117 60 1 45 4 -77 15 -418 38 -645 133 -645 269 0 84
142 199 333 270 26 10 46 20 44 22 -3 2 -44 -5 -93 -16 -88 -19 -254 -41 -315
-41 l-31 0 25 43 c95 161 29 280 -171 311 l-75 12 74 68 74 68 -95 -58 c-86
-53 -229 -121 -289 -139 l-23 -7 27 51 c16 28 26 53 23 56 -6 6 -257 -13 -327
-25 -30 -6 -61 -10 -68 -10 -28 0 -8 107 42 225 5 11 -14 -8 -43 -41 -61 -74
-120 -123 -188 -157 -49 -25 -53 -25 -94 -11 -27 9 -73 14 -122 13 -77 -2 -80
-1 -114 32 -39 37 -90 133 -100 185 -9 47 -39 47 -48 0z m401 -284 c59 -32 50
-118 -24 -243 -69 -116 -178 -186 -337 -218 l-84 -16 -53 -110 -54 -110 -62
-11 c-50 -9 -63 -9 -63 1 0 35 179 411 245 516 14 21 25 43 25 49 0 5 5 10 10
10 6 0 10 5 10 10 0 6 11 28 25 49 30 44 99 78 122 60 10 -9 13 -8 13 4 0 9
10 17 23 20 46 8 183 0 204 -11z m580 -35 c-17 -28 -33 -45 -35 -39 -2 7 -8
12 -14 12 -6 0 -6 -6 2 -15 10 -12 9 -19 -3 -38 -13 -20 -31 -26 -128 -40 -63
-10 -119 -23 -126 -30 -6 -7 -28 -42 -48 -79 l-37 -68 96 0 c53 0 96 -2 96 -5
0 -3 -11 -28 -25 -55 -27 -54 -30 -55 -140 -65 -80 -7 -88 -12 -119 -74 -48
-94 -49 -91 48 -91 47 0 86 -2 86 -4 0 -10 -52 -116 -59 -121 -14 -8 -309 -25
-326 -19 -11 4 -14 13 -9 28 20 65 219 476 267 553 15 24 27 47 27 52 0 4 12
30 26 55 18 33 30 44 37 37 7 -7 14 -5 22 5 7 10 30 17 59 19 26 2 50 6 53 9
11 11 51 6 56 -6 3 -8 6 -6 6 4 1 18 30 22 158 25 l61 1 -31 -51z m314 -4 c1
-17 2 -17 6 0 3 10 14 17 28 17 13 0 29 -8 34 -17 8 -14 13 -15 19 -5 7 10 15
10 43 0 75 -28 109 -72 105 -134 -10 -134 -168 -275 -361 -320 -38 -9 -76 -18
-83 -20 -18 -5 0 -104 53 -289 5 -16 -1 -24 -27 -37 -18 -8 -47 -18 -63 -22
-29 -6 -31 -4 -52 51 -12 32 -32 98 -44 147 -25 102 -21 102 -85 -13 -31 -54
-33 -56 -83 -62 -28 -4 -58 -9 -66 -13 -8 -3 -15 0 -15 6 0 24 241 498 289
568 10 14 23 40 31 58 16 42 85 72 204 88 16 2 31 6 34 9 12 11 32 4 33 -12z
m-1722 -47 c-8 -6 -21 -24 -29 -41 -8 -16 -42 -77 -75 -135 -76 -135 -114
-226 -115 -271 0 -43 13 -51 66 -39 59 14 86 40 133 131 24 46 69 129 100 184
31 55 60 110 64 122 8 21 81 49 175 68 35 7 39 4 19 -17 -7 -7 -70 -129 -140
-270 -139 -280 -159 -306 -245 -332 -81 -24 -198 -39 -246 -32 -56 9 -110 44
-114 75 -2 13 6 51 18 85 26 72 182 390 209 425 21 28 183 86 190 68 2 -6 -3
-15 -10 -21z m-295 -4 c-6 -4 -15 -18 -19 -32 -4 -14 -20 -46 -36 -71 -29 -46
-29 -46 -99 -53 -119 -11 -261 -72 -276 -119 -10 -30 9 -39 110 -52 151 -19
181 -56 109 -136 -41 -45 -98 -81 -176 -111 -57 -23 -215 -68 -234 -68 -17 0
-17 82 -1 98 7 7 24 12 39 12 38 0 160 39 182 58 42 38 15 56 -107 71 -89 11
-136 30 -136 55 0 49 62 129 143 184 48 33 192 102 212 102 8 0 16 4 19 9 6 8
19 13 101 31 22 5 58 13 80 18 49 12 104 14 89 4z m2280 -708 c16 -6 16 -8 0
-25 -9 -11 -20 -19 -24 -19 -19 0 -290 -296 -394 -427 -35 -45 -46 -53 -74
-53 -31 0 -34 2 -28 25 7 27 91 200 150 310 21 39 52 96 69 127 29 55 33 57
81 66 53 10 190 7 220 -4z m-616 -9 c61 -31 64 -110 12 -263 -49 -141 -143
-278 -271 -396 -80 -74 -145 -106 -219 -106 -174 0 -212 150 -100 395 37 81
118 199 172 252 54 53 157 115 181 109 9 -2 17 0 17 4 0 23 165 26 208 5z
m-1089 -82 c-29 -48 -41 -59 -69 -65 -92 -17 -180 -45 -197 -61 -23 -20 -69
-114 -61 -123 3 -3 43 0 87 7 45 6 84 9 87 6 10 -9 -35 -85 -53 -91 -10 -2
-51 -10 -91 -16 -68 -11 -75 -15 -98 -49 -13 -21 -29 -52 -34 -70 l-9 -33 85
7 86 7 -7 -24 c-18 -57 -34 -75 -72 -82 -95 -16 -241 -36 -271 -36 -30 0 -33
2 -27 23 16 52 93 225 175 393 84 172 91 182 127 196 57 23 224 60 244 55 10
-3 19 -1 21 4 4 13 91 28 102 18 5 -4 -6 -33 -25 -66z m527 42 c66 -43 68 -99
4 -187 -62 -87 -152 -144 -290 -184 -90 -26 -89 -21 -24 -168 24 -55 42 -102
39 -104 -3 -3 -28 -13 -57 -23 -41 -14 -56 -15 -65 -6 -11 11 -49 84 -89 171
l-18 39 -23 -29 c-13 -16 -33 -54 -45 -85 l-22 -57 -59 -7 c-33 -3 -61 -4 -63
-2 -10 9 52 152 159 370 107 216 114 228 147 238 19 6 44 14 55 20 99 45 292
53 351 14z m-1015 -47 c-40 -62 -168 -333 -212 -447 -48 -125 -45 -121 -156
-154 l-51 -15 8 28 c4 16 27 72 50 125 24 53 40 98 38 101 -10 9 -139 -37
-157 -57 -10 -11 -33 -54 -51 -94 -28 -65 -37 -76 -71 -89 -21 -9 -57 -19 -79
-22 l-41 -7 20 51 c70 177 218 452 259 480 25 17 109 52 125 52 4 0 -11 -35
-32 -77 -21 -43 -42 -89 -46 -103 -4 -14 -12 -31 -18 -38 -18 -23 -1 -22 70 4
49 18 74 33 81 49 30 65 122 194 144 200 26 7 65 23 88 36 8 4 23 8 33 8 18 1
18 -1 -2 -31z m1690 -587 c20 -16 21 -23 13 -51 -22 -78 -154 -130 -204 -80
-38 38 -10 97 65 131 51 24 97 24 126 0z"/>
<path d="M2311 1876 c-20 -11 -101 -145 -101 -168 0 -5 12 -8 26 -8 52 0 109
25 150 66 35 34 40 45 36 72 -3 26 -10 33 -41 42 -44 12 -41 12 -70 -4z"/>
<path d="M3337 1833 c-30 -5 -52 -34 -106 -142 -27 -53 -29 -62 -14 -58 10 3
34 8 53 12 104 19 197 72 225 125 14 28 14 31 -5 50 -20 20 -75 25 -153 13z"/>
<path d="M2884 1051 c-101 -25 -234 -228 -234 -357 0 -49 24 -70 67 -60 83 21
250 267 244 361 -1 27 -26 66 -40 64 -3 -1 -20 -4 -37 -8z"/>
<path d="M2280 1068 c-30 -6 -60 -14 -67 -19 -15 -13 -87 -159 -80 -165 7 -7
110 24 172 52 61 28 118 86 108 110 -6 16 -44 35 -66 33 -7 -1 -37 -6 -67 -11z"/>
</g>
</svg>
